# Created by Metasequoia

mtllib bullet.mtl

v 0.039146 -0.016215 0.176499
v 0.016215 -0.039146 0.176499
v 0.039146 0.016215 0.176499
v 0.016215 0.039146 0.176499
v -0.016215 0.039146 0.176499
v -0.039146 0.016215 0.176499
v -0.039146 -0.016215 0.176499
v -0.016215 -0.039146 0.176499
v 0.000000 -0.000000 0.150640
v 0.039146 -0.016215 0.176499
v 0.016215 -0.039146 0.176499
v 0.039146 0.016215 0.176499
v 0.016215 0.039146 0.176499
v -0.016215 0.039146 0.176499
v -0.039146 0.016215 0.176499
v -0.039146 -0.016215 0.176499
v -0.016215 -0.039146 0.176499
v 0.000000 -0.000000 0.408480
v 0.016215 -0.039146 -0.211819
v 0.039146 -0.016215 -0.211819
v 0.039146 0.016215 -0.211819
v 0.016215 0.039146 -0.211819
v -0.016215 0.039146 -0.211819
v -0.039146 0.016215 -0.211819
v -0.039146 -0.016215 -0.211819
v -0.016215 -0.039146 -0.211819
v -0.000000 0.000000 -2.180023
v 0.016215 -0.039146 -0.211819
v 0.039146 -0.016215 -0.211819
v 0.039146 -0.016215 0.176499
v 0.016215 -0.039146 0.176499
v 0.039146 0.016215 -0.211819
v 0.039146 0.016215 0.176499
v 0.016215 0.039146 -0.211819
v 0.016215 0.039146 0.176499
v -0.016215 0.039146 -0.211819
v -0.016215 0.039146 0.176499
v -0.039146 0.016215 -0.211819
v -0.039146 0.016215 0.176499
v -0.039146 -0.016215 -0.211819
v -0.039146 -0.016215 0.176499
v -0.016215 -0.039146 -0.211819
v -0.016215 -0.039146 0.176499
v 0.000000 -0.000000 0.408480
v -0.000000 0.000000 -2.180023
v 0.026336 -0.063582 0.185295
v 0.063582 -0.026336 0.185295
v 0.063582 -0.026336 -0.212920
v 0.026336 -0.063582 -0.212920
v 0.063582 0.026336 0.185295
v 0.063582 0.026336 -0.212920
v 0.026336 0.063582 0.185295
v 0.026336 0.063582 -0.212920
v -0.026336 0.063582 0.185295
v -0.026336 0.063582 -0.212920
v -0.063582 0.026336 0.185295
v -0.063582 0.026336 -0.212920
v -0.063582 -0.026336 0.185295
v -0.063582 -0.026336 -0.212920
v -0.026336 -0.063582 0.185295
v -0.026336 -0.063582 -0.212920
v 0.000000 -0.000000 0.449724
v -0.000000 0.000000 -3.870864
# 63 vertices

vt 0.14428 0.65332
vt 0.14428 0.67347
vt 0.01712 0.72211
vt 0.14428 0.72211
vt 0.14428 0.77076
vt 0.14428 0.79091
vt 0.14428 0.65332
vt 0.14428 0.67347
vt 0.01712 0.72211
vt 0.14428 0.72211
vt 0.14428 0.77076
vt 0.14428 0.79091
vt 0.41803 0.65332
vt 0.41803 0.67347
vt 0.41803 0.72211
vt 0.41803 0.77076
vt 0.41803 0.79091
vt 0.98344 0.72211
vt 0.14428 0.65332
vt 0.14428 0.67347
vt 0.41803 0.67347
vt 0.41803 0.65332
vt 0.14428 0.72211
vt 0.41803 0.72211
vt 0.14428 0.77076
vt 0.41803 0.77076
vt 0.14428 0.79091
vt 0.41803 0.79091
vt 0.01712 0.72211
vt 0.98344 0.72211
vt 0.14428 0.22167
vt 0.14428 0.24182
vt 0.41803 0.24182
vt 0.41803 0.22167
vt 0.14428 0.29046
vt 0.41803 0.29046
vt 0.14428 0.33911
vt 0.41803 0.33911
vt 0.14428 0.35926
vt 0.41803 0.35926
vt 0.01712 0.29046
vt 0.98344 0.29046
# 42 texture vertices

vn 0.19936 -0.48129 -0.85359
vn 0.48129 -0.19936 -0.85359
vn 0.00000 -0.00000 -1.00000
vn 0.48129 0.19936 -0.85359
vn 0.19936 0.48129 -0.85359
vn -0.19936 0.48129 -0.85359
vn -0.48129 0.19936 -0.85359
vn -0.48129 -0.19936 -0.85359
vn -0.19936 -0.48129 -0.85359
vn -0.38119 0.92027 -0.08830
vn -0.92027 0.38119 -0.08830
vn -0.00000 0.00000 -1.00000
vn -0.92027 -0.38118 -0.08829
vn -0.38120 -0.92027 -0.08829
vn 0.38119 -0.92027 -0.08830
vn 0.92027 -0.38119 -0.08829
vn 0.92027 0.38120 -0.08829
vn 0.38118 0.92028 -0.08829
vn -0.38266 0.92383 0.01073
vn -0.92383 0.38266 0.01073
vn -0.92382 -0.38267 0.01073
vn -0.38265 -0.92383 0.01073
vn 0.38266 -0.92383 0.01073
vn 0.92383 -0.38266 0.01073
vn 0.92383 0.38265 0.01073
vn 0.38267 0.92382 0.01073
vn -0.38189 -0.92196 0.06445
vn 0.38259 0.92367 0.02152
vn 0.38119 -0.92027 0.08830
vn 0.92027 -0.38119 0.08830
vn 0.92383 -0.38266 -0.01073
vn 0.38266 -0.92383 -0.01073
vn 0.92027 0.38118 0.08829
vn 0.92382 0.38267 -0.01073
vn 0.38120 0.92027 0.08829
vn 0.38265 0.92383 -0.01073
vn -0.38119 0.92027 0.08830
vn -0.38266 0.92383 -0.01073
vn -0.92027 0.38119 0.08829
vn -0.92383 0.38266 -0.01073
vn -0.92027 -0.38120 0.08829
vn -0.92383 -0.38265 -0.01073
vn -0.38118 -0.92028 0.08829
vn -0.38267 -0.92382 -0.01073
vn 0.00000 -0.00000 1.00000
vn 0.38189 0.92196 -0.06445
vn -0.38259 -0.92367 -0.02152
vn 0.37977 -0.91684 0.12324
vn 0.91683 -0.37978 0.12323
vn 0.92384 -0.38266 -0.00938
vn 0.38267 -0.92384 -0.00938
vn 0.91684 0.37976 0.12323
vn 0.92384 0.38267 -0.00938
vn 0.37977 0.91683 0.12323
vn 0.38267 0.92384 -0.00938
vn -0.37977 0.91684 0.12324
vn -0.38267 0.92384 -0.00938
vn -0.91684 0.37976 0.12323
vn -0.92384 0.38268 -0.00938
vn -0.91683 -0.37977 0.12323
vn -0.92384 -0.38266 -0.00938
vn -0.37977 -0.91684 0.12324
vn -0.38267 -0.92384 -0.00938
vn 0.00000 -0.00000 1.00000
vn 0.38208 0.92241 -0.05635
vn -0.38262 -0.92372 -0.01881
# 66 normal vertices

g obj5
s 1
usemtl mat1
f 9/3/3 1/2/2 2/1/1
f 9/3/3 3/4/4 1/2/2
f 9/3/3 4/5/5 3/4/4
f 9/3/3 5/6/6 4/5/5
f 9/3/3 6/5/7 5/6/6
f 9/3/3 7/4/8 6/5/7
f 9/3/3 8/2/9 7/4/8
f 9/3/3 2/1/1 8/2/9
g obj1
s 1
f 18/9/12 10/8/11 11/7/10
f 18/9/12 12/10/13 10/8/11
f 18/9/12 13/11/14 12/10/13
f 18/9/12 14/12/15 13/11/14
f 18/9/12 15/11/16 14/12/15
f 18/9/12 16/10/17 15/11/16
f 18/9/12 17/8/18 16/10/17
f 18/9/12 11/7/10 17/8/18
f 11/7/10 10/8/11 20/14/20 19/13/19
f 10/8/11 12/10/13 21/15/21 20/14/20
f 12/10/13 13/11/14 22/16/22 21/15/21
f 13/11/14 14/12/15 23/17/23 22/16/22
f 14/12/15 15/11/16 24/16/24 23/17/23
f 15/11/16 16/10/17 25/15/25 24/16/24
f 16/10/17 17/8/18 26/14/26 25/15/25
f 17/8/18 11/7/10 19/13/19 26/14/26
f 27/18/27 19/13/19 20/14/20
f 27/18/27 20/14/20 21/15/21
f 27/18/27 21/15/21 22/16/22
f 27/18/27 22/16/22 23/17/23
f 27/18/27 23/17/23 24/16/24
f 27/18/27 24/16/24 25/15/25
f 27/18/28 25/15/25 26/14/26
f 27/18/28 26/14/26 19/13/19
g obj4
s 1
f 28/22/32 29/21/31 30/20/30 31/19/29
f 29/21/31 32/24/34 33/23/33 30/20/30
f 32/24/34 34/26/36 35/25/35 33/23/33
f 34/26/36 36/28/38 37/27/37 35/25/35
f 36/28/38 38/26/40 39/25/39 37/27/37
f 38/26/40 40/24/42 41/23/41 39/25/39
f 40/24/42 42/21/44 43/20/43 41/23/41
f 42/21/44 28/22/32 31/19/29 43/20/43
f 31/19/29 30/20/30 44/29/45
f 30/20/30 33/23/33 44/29/45
f 33/23/33 35/25/35 44/29/45
f 35/25/35 37/27/37 44/29/45
f 37/27/37 39/25/39 44/29/45
f 39/25/39 41/23/41 44/29/45
f 41/23/41 43/20/43 44/29/45
f 43/20/43 31/19/29 44/29/45
f 29/21/31 28/22/32 45/30/46
f 32/24/34 29/21/31 45/30/46
f 34/26/36 32/24/34 45/30/46
f 36/28/38 34/26/36 45/30/46
f 38/26/40 36/28/38 45/30/46
f 40/24/42 38/26/40 45/30/46
f 42/21/44 40/24/42 45/30/47
f 28/22/32 42/21/44 45/30/47
g obj3
s 1
f 49/34/51 48/33/50 47/32/49 46/31/48
f 48/33/50 51/36/53 50/35/52 47/32/49
f 51/36/53 53/38/55 52/37/54 50/35/52
f 53/38/55 55/40/57 54/39/56 52/37/54
f 55/40/57 57/38/59 56/37/58 54/39/56
f 57/38/59 59/36/61 58/35/60 56/37/58
f 59/36/61 61/33/63 60/32/62 58/35/60
f 61/33/63 49/34/51 46/31/48 60/32/62
f 46/31/48 47/32/49 62/41/64
f 47/32/49 50/35/52 62/41/64
f 50/35/52 52/37/54 62/41/64
f 52/37/54 54/39/56 62/41/64
f 54/39/56 56/37/58 62/41/64
f 56/37/58 58/35/60 62/41/64
f 58/35/60 60/32/62 62/41/64
f 60/32/62 46/31/48 62/41/64
f 48/33/50 49/34/51 63/42/65
f 51/36/53 48/33/50 63/42/65
f 53/38/55 51/36/53 63/42/65
f 55/40/57 53/38/55 63/42/65
f 57/38/59 55/40/57 63/42/65
f 59/36/61 57/38/59 63/42/65
f 61/33/63 59/36/61 63/42/66
f 49/34/51 61/33/63 63/42/66
# 80 elements

